<!DOCTYPE svg PUBLIC "-//W3C//DTD SVG 1.1//EN" "http://www.w3.org/Graphics/SVG/1.1/DTD/svg11.dtd">

<!-- Uploaded to: SVG Repo, www.svgrepo.com, Transformed by: SVG Repo Mixer Tools -->
<svg width="800px" height="800px" viewBox="0 0 20 20" xmlns="http://www.w3.org/2000/svg" fill="#000000" transform="matrix(-1, 0, 0, -1, 0, 0)">

<g id="SVGRepo_bgCarrier" stroke-width="0"/>

<g id="SVGRepo_tracerCarrier" stroke-linecap="round" stroke-linejoin="round"/>

<g id="SVGRepo_iconCarrier">

<path d="M10 3.778a6.222 6.222 0 1 0 3.726 11.205l-4.869-4.869v2.208a.889.889 0 0 1-1.778 0V7.968c0-.49.398-.889.89-.889h4.353a.889.889 0 0 1 0 1.778h-2.208l4.87 4.87A6.193 6.193 0 0 0 16.221 10 6.222 6.222 0 0 0 10 3.778ZM2 10a8 8 0 1 1 16 0 8 8 0 0 1-16 0Z" fill="#ffffff"/>

</g>

</svg>